<svg width="600" height="400" xmlns="http://www.w3.org/2000/svg">
  <defs>
    <linearGradient id="bg" x1="0%" y1="0%" x2="100%" y2="100%">
      <stop offset="0%" style="stop-color:#f8f9fa;stop-opacity:1" />
      <stop offset="100%" style="stop-color:#e9ecef;stop-opacity:1" />
    </linearGradient>
  </defs>
  
  <!-- Background -->
  <rect width="600" height="400" fill="url(#bg)" stroke="#dee2e6" stroke-width="1"/>
  
  <!-- Main container -->
  <rect x="50" y="50" width="500" height="300" fill="white" rx="8" stroke="#dee2e6"/>
  
  <!-- Header -->
  <rect x="50" y="50" width="500" height="45" fill="#495057" rx="8 8 0 0"/>
  <text x="70" y="75" font-family="Arial, sans-serif" font-size="16" font-weight="bold" fill="white">Cinch Home Services</text>
  
  <!-- Service categories -->
  <rect x="80" y="110" width="140" height="80" fill="#f8f9fa" stroke="#e9ecef" rx="4"/>
  <text x="150" y="135" font-family="Arial, sans-serif" font-size="14" fill="#212529" text-anchor="middle">🔧</text>
  <text x="150" y="155" font-family="Arial, sans-serif" font-size="11" fill="#212529" text-anchor="middle" font-weight="bold">Appliance Repair</text>
  <text x="150" y="170" font-family="Arial, sans-serif" font-size="8" fill="#6c757d" text-anchor="middle">Same-day service</text>
  
  <rect x="240" y="110" width="140" height="80" fill="#f8f9fa" stroke="#e9ecef" rx="4"/>
  <text x="310" y="135" font-family="Arial, sans-serif" font-size="14" fill="#212529" text-anchor="middle">🔌</text>
  <text x="310" y="155" font-family="Arial, sans-serif" font-size="11" fill="#212529" text-anchor="middle" font-weight="bold">Electrical</text>
  <text x="310" y="170" font-family="Arial, sans-serif" font-size="8" fill="#6c757d" text-anchor="middle">Licensed electricians</text>
  
  <rect x="400" y="110" width="120" height="80" fill="#f8f9fa" stroke="#e9ecef" rx="4"/>
  <text x="460" y="135" font-family="Arial, sans-serif" font-size="14" fill="#212529" text-anchor="middle">🚰</text>
  <text x="460" y="155" font-family="Arial, sans-serif" font-size="11" fill="#212529" text-anchor="middle" font-weight="bold">Plumbing</text>
  <text x="460" y="170" font-family="Arial, sans-serif" font-size="8" fill="#6c757d" text-anchor="middle">Emergency repairs</text>
  
  <!-- Booking section -->
  <rect x="80" y="210" width="200" height="80" fill="#f8f9fa" stroke="#e9ecef" rx="4"/>
  <text x="90" y="230" font-family="Arial, sans-serif" font-size="10" fill="#212529" font-weight="bold">Quick Booking</text>
  <rect x="90" y="240" width="120" height="15" fill="white" stroke="#dee2e6" rx="2"/>
  <text x="95" y="250" font-family="Arial, sans-serif" font-size="7" fill="#6c757d">Select service...</text>
  <rect x="90" y="260" width="120" height="15" fill="white" stroke="#dee2e6" rx="2"/>
  <text x="95" y="270" font-family="Arial, sans-serif" font-size="7" fill="#6c757d">Enter address...</text>
  
  <!-- Stats panel -->
  <rect x="300" y="210" width="220" height="80" fill="white" stroke="#dee2e6" rx="4"/>
  <text x="310" y="230" font-family="Arial, sans-serif" font-size="10" fill="#212529" font-weight="bold">Platform Stats</text>
  <text x="310" y="250" font-family="Arial, sans-serif" font-size="9" fill="#495057">Active Technicians: 127</text>
  <text x="310" y="265" font-family="Arial, sans-serif" font-size="9" fill="#495057">Jobs Today: 89</text>
  <text x="310" y="280" font-family="Arial, sans-serif" font-size="9" fill="#495057">Average Rating: 4.8 stars</text>
  
  <!-- Footer info -->
  <text x="80" y="320" font-family="Arial, sans-serif" font-size="8" fill="#6c757d">Secure payments • Real-time tracking • Insured technicians • 24/7 support</text>
</svg>